<?xml version="1.0" encoding="UTF-8" standalone="no" ?>
<!DOCTYPE svg PUBLIC "-//W3C//DTD SVG 1.1//EN" "http://www.w3.org/Graphics/SVG/1.1/DTD/svg11.dtd">
<svg xmlns="http://www.w3.org/2000/svg" xmlns:xlink="http://www.w3.org/1999/xlink" version="1.1" width="640" height="480" viewBox="0 0 640 480" xml:space="preserve">
<desc>Created with Fabric.js 3.6.6</desc>
<defs>
</defs>
<g transform="matrix(3.53 0 0 3.53 325.52 239.3)"  >
<g style=""   >
		<g transform="matrix(1.96 0 0 1.96 -26.76 32.69)"  >
<path style="stroke: none; stroke-width: 1; stroke-dasharray: none; stroke-linecap: butt; stroke-dashoffset: 0; stroke-linejoin: miter; stroke-miterlimit: 4; fill: rgb(255,255,255); fill-rule: evenodd; opacity: 1;"  transform=" translate(-142.29, -50.33)" d="M 142.295 45.099 C 143.738 45.099 144.908 46.2689 144.908 47.7121 L 144.908 52.9384 C 144.908 54.3816 143.738 55.5516 142.295 55.5516 C 140.852 55.5516 139.682 54.3816 139.682 52.9384 L 139.682 47.7121 C 139.682 46.2689 140.852 45.099 142.295 45.099 Z" stroke-linecap="round" />
</g>
		<g transform="matrix(1.96 0 0 1.96 26.87 32.69)"  >
<path style="stroke: none; stroke-width: 1; stroke-dasharray: none; stroke-linecap: butt; stroke-dashoffset: 0; stroke-linejoin: miter; stroke-miterlimit: 4; fill: rgb(255,255,255); fill-rule: evenodd; opacity: 1;"  transform=" translate(-169.66, -50.33)" d="M 169.658 41.1793 C 171.101 41.1793 172.271 42.3492 172.271 43.7924 L 172.271 56.8581 C 172.271 58.3013 171.101 59.4713 169.658 59.4713 C 168.215 59.4713 167.045 58.3013 167.045 56.8581 L 167.045 43.7924 C 167.045 42.3492 168.215 41.1793 169.658 41.1793 Z" stroke-linecap="round" />
</g>
		<g transform="matrix(1.96 0 0 1.96 8.99 31.95)"  >
<path style="stroke: none; stroke-width: 1; stroke-dasharray: none; stroke-linecap: butt; stroke-dashoffset: 0; stroke-linejoin: miter; stroke-miterlimit: 4; fill: rgb(255,255,255); fill-rule: evenodd; opacity: 1;"  transform=" translate(-160.54, -49.94)" d="M 160.537 32.5965 C 161.98 32.5965 163.15 33.7665 163.15 35.2097 L 163.15 64.6753 C 163.15 66.1185 161.98 67.2885 160.537 67.2885 C 159.094 67.2885 157.924 66.1185 157.924 64.6753 L 157.924 35.2097 C 157.924 33.7665 159.094 32.5965 160.537 32.5965 Z" stroke-linecap="round" />
</g>
		<g transform="matrix(1.96 0 0 1.96 -8.89 31.94)"  >
<path style="stroke: none; stroke-width: 1; stroke-dasharray: none; stroke-linecap: butt; stroke-dashoffset: 0; stroke-linejoin: miter; stroke-miterlimit: 4; fill: rgb(255,255,255); fill-rule: evenodd; opacity: 1;"  transform=" translate(-151.42, -49.94)" d="M 151.416 37.3272 C 152.859 37.3272 154.029 38.4972 154.029 39.9404 L 154.029 59.9446 C 154.029 61.3878 152.859 62.5577 151.416 62.5577 C 149.973 62.5577 148.803 61.3878 148.803 59.9446 L 148.803 39.9404 C 148.803 38.4972 149.973 37.3272 151.416 37.3272 Z" stroke-linecap="round" />
</g>
		<g transform="matrix(1.96 0 0 1.96 -44.69 32.69)"  >
<path style="stroke: none; stroke-width: 1; stroke-dasharray: none; stroke-linecap: butt; stroke-dashoffset: 0; stroke-linejoin: miter; stroke-miterlimit: 4; fill: rgb(255,255,255); fill-rule: evenodd; opacity: 1;"  transform=" translate(-133.15, -50.33)" d="M 133.149 39.2194 C 134.592 39.2194 135.762 40.3893 135.762 41.8325 L 135.762 58.8179 C 135.762 60.2612 134.592 61.4311 133.149 61.4311 C 131.706 61.4311 130.536 60.2611 130.536 58.8179 L 130.536 41.8325 C 130.536 40.3893 131.706 39.2194 133.149 39.2194 Z" stroke-linecap="round" />
</g>
		<g transform="matrix(1.96 0 0 1.96 44.74 32.69)"  >
<path style="stroke: none; stroke-width: 1; stroke-dasharray: none; stroke-linecap: butt; stroke-dashoffset: 0; stroke-linejoin: miter; stroke-miterlimit: 4; fill: rgb(255,255,255); fill-rule: evenodd; opacity: 1;"  transform=" translate(-178.78, -50.33)" d="M 178.779 39.2194 C 180.222 39.2194 181.392 40.3893 181.392 41.8325 L 181.392 58.8179 C 181.392 60.2612 180.222 61.4311 178.779 61.4311 C 177.335 61.4311 176.165 60.2611 176.165 58.8179 L 176.165 41.8325 C 176.165 40.3893 177.335 39.2194 178.779 39.2194 Z" stroke-linecap="round" />
</g>
		<g transform="matrix(1.96 0 0 1.96 0 -14.5)"  >
<path style="stroke: none; stroke-width: 1; stroke-dasharray: none; stroke-linecap: butt; stroke-dashoffset: 0; stroke-linejoin: miter; stroke-miterlimit: 4; fill: rgb(255,255,255); fill-rule: evenodd; opacity: 1;"  transform=" translate(-155.95, -26.24)" d="M 155.951 5.22629 C 141.127 5.22629 129.129 17.1868 129.129 31.9161 V 47.2628 H 132.734 C 134.178 47.2628 135.348 48.4327 135.348 49.8759 C 135.348 51.3191 134.178 52.4891 132.734 52.4891 H 128.174 C 125.815 52.4891 123.903 50.5766 123.903 48.2176 V 31.9161 C 123.903 14.2782 138.262 0 155.951 0 C 173.64 0 188 14.2782 188 31.9161 V 48.2176 C 188 50.5766 186.088 52.4891 183.729 52.4891 H 179.168 C 177.725 52.4891 176.555 51.3191 176.555 49.8759 C 176.555 48.4327 177.725 47.2628 179.168 47.2628 H 182.774 V 31.9161 C 182.774 17.1868 170.776 5.22629 155.951 5.22629 Z" stroke-linecap="round" />
</g>
</g>
</g>
</svg>