<svg width="22" height="22" viewBox="0 0 25 25" fill="none" xmlns="http://www.w3.org/2000/svg">
<path d="M48.496 19H47.128V7.2H50.44C51.352 7.2 52.1093 7.37067 52.712 7.712C53.3147 8.048 53.7653 8.50133 54.064 9.072C54.3627 9.64267 54.512 10.2773 54.512 10.976C54.512 11.6747 54.3573 12.32 54.048 12.912C53.744 13.504 53.288 13.9813 52.68 14.344C52.0773 14.7013 51.3307 14.88 50.44 14.88H48.496V19ZM48.496 14.376L47.88 13.68H50.272C50.912 13.68 51.4427 13.568 51.864 13.344C52.2907 13.1147 52.608 12.7973 52.816 12.392C53.0293 11.9867 53.136 11.5147 53.136 10.976C53.136 10.432 53.0347 9.968 52.832 9.584C52.6293 9.2 52.3173 8.90667 51.896 8.704C51.4747 8.50133 50.9333 8.4 50.272 8.4H47.88L48.496 7.624V14.376ZM56.9252 15.296V14.08H63.4932L63.2533 14.48C63.2533 14.448 63.2533 14.4187 63.2533 14.392C63.2533 14.36 63.2533 14.3307 63.2533 14.304C63.2533 13.8133 63.1493 13.3653 62.9412 12.96C62.7386 12.5493 62.4346 12.2213 62.0292 11.976C61.6239 11.7307 61.1226 11.608 60.5252 11.608C59.9226 11.608 59.3919 11.736 58.9332 11.992C58.4746 12.248 58.1172 12.6107 57.8612 13.08C57.6052 13.544 57.4772 14.0987 57.4772 14.744C57.4772 15.4 57.5999 15.9653 57.8452 16.44C58.0959 16.9147 58.4506 17.28 58.9092 17.536C59.3679 17.792 59.9119 17.92 60.5412 17.92C60.9892 17.92 61.3786 17.8747 61.7092 17.784C62.0399 17.688 62.3119 17.5627 62.5252 17.408C62.7439 17.248 62.9092 17.0747 63.0212 16.888C63.1332 16.7013 63.1999 16.5147 63.2213 16.328H64.5813C64.5546 16.6693 64.4479 17.008 64.2612 17.344C64.0746 17.68 63.8106 17.9867 63.4692 18.264C63.1279 18.536 62.7092 18.7547 62.2132 18.92C61.7172 19.0853 61.1466 19.168 60.5012 19.168C59.6479 19.168 58.8959 18.9813 58.2452 18.608C57.5946 18.2347 57.0826 17.7173 56.7092 17.056C56.3412 16.3947 56.1572 15.6347 56.1572 14.776C56.1572 13.9067 56.3439 13.144 56.7172 12.488C57.0906 11.8267 57.6052 11.3093 58.2612 10.936C58.9172 10.5627 59.6666 10.376 60.5092 10.376C61.3679 10.376 62.1119 10.5627 62.7413 10.936C63.3706 11.3093 63.8559 11.8213 64.1973 12.472C64.5386 13.1173 64.7093 13.8533 64.7093 14.68C64.7093 14.7653 64.7066 14.8773 64.7013 15.016C64.6959 15.1547 64.6879 15.248 64.6772 15.296H56.9252ZM67.309 19V10.504H68.669V13.112L68.221 12.952C68.253 12.6373 68.333 12.328 68.461 12.024C68.589 11.7147 68.765 11.4373 68.989 11.192C69.2183 10.9413 69.5037 10.744 69.845 10.6C70.1863 10.4507 70.5863 10.376 71.045 10.376C71.3863 10.376 71.6637 10.4053 71.877 10.464C72.0957 10.5173 72.2317 10.56 72.285 10.592L71.933 11.928C71.8797 11.8907 71.7703 11.8427 71.605 11.784C71.445 11.7253 71.2157 11.696 70.917 11.696C70.4743 11.696 70.1063 11.776 69.813 11.936C69.525 12.096 69.2957 12.3093 69.125 12.576C68.9597 12.8373 68.8423 13.1227 68.773 13.432C68.7037 13.7413 68.669 14.048 68.669 14.352V19H67.309ZM75.2745 19V11.704H73.4185V10.504H75.2745V9.408C75.2745 9.02933 75.3172 8.68267 75.4025 8.368C75.4932 8.048 75.6212 7.76533 75.7865 7.52C75.9572 7.27467 76.1625 7.06667 76.4025 6.896C76.6425 6.72533 76.9145 6.59733 77.2185 6.512C77.5278 6.42133 77.8638 6.376 78.2265 6.376C78.4878 6.376 78.6958 6.392 78.8505 6.424C79.0052 6.456 79.1092 6.48533 79.1625 6.512V7.712C79.0985 7.69067 78.9918 7.66667 78.8425 7.64C78.6932 7.61333 78.5332 7.6 78.3625 7.6C77.9998 7.6 77.7038 7.656 77.4745 7.768C77.2505 7.88 77.0772 8.03467 76.9545 8.232C76.8318 8.424 76.7465 8.64267 76.6985 8.888C76.6558 9.13333 76.6345 9.38933 76.6345 9.656V10.504H79.1145V11.704H76.6345V19H75.2745ZM80.7705 19V10.504H82.1145V19H80.7705ZM81.4505 8.552C81.1998 8.552 80.9812 8.48267 80.7945 8.344C80.6132 8.2 80.5225 8.00533 80.5225 7.76C80.5225 7.52 80.6132 7.33067 80.7945 7.192C80.9812 7.048 81.1998 6.976 81.4505 6.976C81.7012 6.976 81.9172 7.048 82.0985 7.192C82.2798 7.33067 82.3705 7.52 82.3705 7.76C82.3705 8.00533 82.2798 8.2 82.0985 8.344C81.9172 8.48267 81.7012 8.552 81.4505 8.552ZM86.5924 6.496V19H85.2484V6.496H86.5924Z" fill="#444955"/>
<path fill-rule="evenodd" clip-rule="evenodd" d="M16.9922 9.06247C16.9922 11.565 14.9634 13.5937 12.4609 13.5937C9.95839 13.5937 7.92969 11.565 7.92969 9.06247C7.92969 6.55994 9.95839 4.53123 12.4609 4.53123C14.9634 4.53123 16.9922 6.55994 16.9922 9.06247ZM14.7265 9.06247C14.7265 10.3138 13.7122 11.3281 12.4609 11.3281C11.2096 11.3281 10.1953 10.3138 10.1953 9.06247C10.1953 7.8112 11.2096 6.79685 12.4609 6.79685C13.7122 6.79685 14.7265 7.8112 14.7265 9.06247Z" fill="#C0C3C9"/>
<path fill-rule="evenodd" clip-rule="evenodd" d="M12.4609 0C5.57894 0 0 5.57894 0 12.4609C0 19.3428 5.57894 24.9218 12.4609 24.9218C19.3428 24.9218 24.9218 19.3428 24.9218 12.4609C24.9218 5.57894 19.3428 0 12.4609 0ZM2.26562 12.4609C2.26562 14.8287 3.0728 17.008 4.427 18.7386C6.28987 16.2999 9.22817 14.7265 12.534 14.7265C15.7968 14.7265 18.7018 16.2593 20.5679 18.6441C21.8779 16.929 22.6562 14.7859 22.6562 12.4609C22.6562 6.83021 18.0916 2.26562 12.4609 2.26562C6.83021 2.26562 2.26562 6.83021 2.26562 12.4609ZM12.4609 22.6562C10.0251 22.6562 7.7888 21.8019 6.03523 20.3767C7.4692 18.3302 9.84531 16.9921 12.534 16.9921C15.1892 16.9921 17.5396 18.2972 18.9789 20.301C17.2118 21.7716 14.9396 22.6562 12.4609 22.6562Z" fill="#C0C3C9"/>
</svg>
